<?xml version="1.0" encoding="UTF-8"?>
<svg xmlns="http://www.w3.org/2000/svg" xmlns:xlink="http://www.w3.org/1999/xlink" width="256px" height="361px" viewBox="0 0 64 90" version="1.1">
<g id="surface1">
<path style=" stroke:none;fill-rule:nonzero;fill:rgb(89.411765%,30.196078%,14.901961%);fill-opacity:1;" d="M 63.890625 17.640625 L 58.078125 82.550781 L 31.960938 89.773438 L 5.914062 82.5625 L 0.109375 17.640625 Z M 63.890625 17.640625 "/>
<path style=" stroke:none;fill-rule:nonzero;fill:rgb(94.509804%,39.607843%,16.078431%);fill-opacity:1;" d="M 32 84.253906 L 53.105469 78.417969 L 58.070312 22.949219 L 32 22.949219 Z M 32 84.253906 "/>
<path style=" stroke:none;fill-rule:nonzero;fill:rgb(92.156863%,92.156863%,92.156863%);fill-opacity:1;" d="M 20.703125 38.875 L 32 38.875 L 32 30.914062 L 11.980469 30.914062 L 12.171875 33.050781 L 14.132812 54.992188 L 32 54.992188 L 32 47.027344 L 21.433594 47.027344 Z M 20.703125 38.875 "/>
<path style=" stroke:none;fill-rule:nonzero;fill:rgb(92.156863%,92.156863%,92.156863%);fill-opacity:1;" d="M 22.503906 58.972656 L 14.488281 58.972656 L 15.609375 71.472656 L 31.964844 76 L 32 75.992188 L 32 67.707031 L 31.964844 67.714844 L 23.074219 65.320312 Z M 22.503906 58.972656 "/>
<path style=" stroke:none;fill-rule:nonzero;fill:rgb(0%,0%,0%);fill-opacity:1;" d="M 6.046875 0 L 10.101562 0 L 10.101562 3.996094 L 13.8125 3.996094 L 13.8125 0 L 17.871094 0 L 17.871094 12.105469 L 13.816406 12.105469 L 13.816406 8.050781 L 10.101562 8.050781 L 10.101562 12.105469 L 6.046875 12.105469 Z M 6.046875 0 "/>
<path style=" stroke:none;fill-rule:nonzero;fill:rgb(0%,0%,0%);fill-opacity:1;" d="M 23.207031 4.015625 L 19.636719 4.015625 L 19.636719 0 L 30.839844 0 L 30.839844 4.015625 L 27.265625 4.015625 L 27.265625 12.105469 L 23.207031 12.105469 Z M 23.207031 4.015625 "/>
<path style=" stroke:none;fill-rule:nonzero;fill:rgb(0%,0%,0%);fill-opacity:1;" d="M 32.617188 0 L 36.847656 0 L 39.449219 4.253906 L 42.050781 0 L 46.28125 0 L 46.28125 12.105469 L 42.242188 12.105469 L 42.242188 6.105469 L 39.449219 10.410156 L 39.382812 10.410156 L 36.585938 6.105469 L 36.585938 12.105469 L 32.617188 12.105469 Z M 32.617188 0 "/>
<path style=" stroke:none;fill-rule:nonzero;fill:rgb(0%,0%,0%);fill-opacity:1;" d="M 48.300781 0 L 52.359375 0 L 52.359375 8.105469 L 58.066406 8.105469 L 58.066406 12.105469 L 48.300781 12.105469 Z M 48.300781 0 "/>
<path style=" stroke:none;fill-rule:nonzero;fill:rgb(100%,100%,100%);fill-opacity:1;" d="M 31.972656 54.992188 L 41.804688 54.992188 L 40.878906 65.316406 L 31.972656 67.714844 L 31.972656 75.996094 L 48.339844 71.472656 L 48.460938 70.128906 L 50.335938 49.167969 L 50.53125 47.027344 L 31.972656 47.027344 Z M 31.972656 54.992188 "/>
<path style=" stroke:none;fill-rule:nonzero;fill:rgb(100%,100%,100%);fill-opacity:1;" d="M 31.972656 38.855469 L 31.972656 38.875 L 51.257812 38.875 L 51.417969 37.085938 L 51.78125 33.050781 L 51.972656 30.914062 L 31.972656 30.914062 Z M 31.972656 38.855469 "/>
</g>
</svg>
