<svg xmlns="http://www.w3.org/2000/svg" xmlns:xlink="http://www.w3.org/1999/xlink" version="1.1" width="1000" height="1000" viewBox="0 0 1000 1000" xml:space="preserve">
<desc>Created with Fabric.js 3.5.0</desc>
<defs>
</defs>
<rect x="0" y="0" width="100%" height="100%" fill="#ffffff"/>
<g transform="matrix(0.5313 0 0 0.5313 245.6695 859.0562)" id="90937">
<g style="" vector-effect="non-scaling-stroke">
		<g transform="matrix(1 0 0 1 0 34.9268)">
<path style="stroke: none; stroke-width: 1; stroke-dasharray: none; stroke-linecap: butt; stroke-dashoffset: 0; stroke-linejoin: miter; stroke-miterlimit: 4; is-custom-font: none; font-file-url: none; fill: rgb(228,77,38); fill-rule: nonzero; opacity: 1;" transform=" translate(-128, -215.4268)" d="m 255.554813 70.7657143 l -23.241143 260.3597367 l -104.469802 28.962461 l -104.1821537 -28.92167 l -23.21652749 -260.4005277 z" stroke-linecap="round"/>
</g>
		<g transform="matrix(1 0 0 1 52.1389 34.5038)">
<path style="stroke: none; stroke-width: 1; stroke-dasharray: none; stroke-linecap: butt; stroke-dashoffset: 0; stroke-linejoin: miter; stroke-miterlimit: 4; is-custom-font: none; font-file-url: none; fill: rgb(241,101,41); fill-rule: nonzero; opacity: 1;" transform=" translate(-180.1389, -215.0038)" d="m 128 337.950242 l 84.416703 -23.403605 l 19.861099 -222.4893183 h -104.277802 z" stroke-linecap="round"/>
</g>
		<g transform="matrix(1 0 0 1 -40.0415 -8.2162)">
<path style="stroke: none; stroke-width: 1; stroke-dasharray: none; stroke-linecap: butt; stroke-dashoffset: 0; stroke-linejoin: miter; stroke-miterlimit: 4; is-custom-font: none; font-file-url: none; fill: rgb(235,235,235); fill-rule: nonzero; opacity: 1;" transform=" translate(-87.9585, -172.2838)" d="m 82.8202198 155.932132 h 45.1797802 v -31.937407 h -80.082989 l 0.7644835 8.568264 l 7.8494945 88.009846 h 71.469011 v -31.936703 h -42.2610989 z" stroke-linecap="round"/>
</g>
		<g transform="matrix(1 0 0 1 -35.021 90.1954)">
<path style="stroke: none; stroke-width: 1; stroke-dasharray: none; stroke-linecap: butt; stroke-dashoffset: 0; stroke-linejoin: miter; stroke-miterlimit: 4; is-custom-font: none; font-file-url: none; fill: rgb(235,235,235); fill-rule: nonzero; opacity: 1;" transform=" translate(-92.979, -270.6954)" d="m 90.0177582 236.54189 h -32.0597802 l 4.4743736 50.145758 l 65.4206594 18.161231 l 0.146989 -0.040791 v -33.227956 l -0.139956 0.037275 l -35.5685275 -9.60422 z" stroke-linecap="round"/>
</g>
		<g transform="matrix(1 0 0 1 -80.1657 -156.2208)">
<path style="stroke: none; stroke-width: 1; stroke-dasharray: none; stroke-linecap: butt; stroke-dashoffset: 0; stroke-linejoin: miter; stroke-miterlimit: 4; is-custom-font: none; font-file-url: none; fill: rgb(0,0,0); fill-rule: nonzero; opacity: 1;" transform=" translate(-47.8344, -24.2792)" d="m 24.1807473 0 h 16.229978 v 16.0351648 h 14.8465934 v -16.0351648 h 16.2306813 v 48.5584176 h -16.229978 v -16.2602198 h -14.8465934 v 16.2602198 h -16.2299781 v -48.5584176 z" stroke-linecap="round"/>
</g>
		<g transform="matrix(1 0 0 1 -27.0502 -156.2208)">
<path style="stroke: none; stroke-width: 1; stroke-dasharray: none; stroke-linecap: butt; stroke-dashoffset: 0; stroke-linejoin: miter; stroke-miterlimit: 4; is-custom-font: none; font-file-url: none; fill: rgb(0,0,0); fill-rule: nonzero; opacity: 1;" transform=" translate(-100.9498, -24.2792)" d="m 92.8309451 16.1026813 h -14.2881759 v -16.1026813 h 44.8140658 v 16.1026813 h -14.294505 v 32.4557363 h -16.2306816 v -32.4557363 z" stroke-linecap="round"/>
</g>
		<g transform="matrix(1 0 0 1 29.8008 -156.2208)">
<path style="stroke: none; stroke-width: 1; stroke-dasharray: none; stroke-linecap: butt; stroke-dashoffset: 0; stroke-linejoin: miter; stroke-miterlimit: 4; is-custom-font: none; font-file-url: none; fill: rgb(0,0,0); fill-rule: nonzero; opacity: 1;" transform=" translate(-157.8008, -24.2792)" d="m 130.469275 0 h 16.923428 l 10.410198 17.061978 l 10.399648 -17.061978 h 16.929759 v 48.5584176 h -16.163165 v -24.0682198 l -11.166242 17.2652308 h -0.279209 l -11.173978 -17.2652308 v 24.0682198 h -15.880439 z" stroke-linecap="round"/>
</g>
		<g transform="matrix(1 0 0 1 84.7392 -156.2208)">
<path style="stroke: none; stroke-width: 1; stroke-dasharray: none; stroke-linecap: butt; stroke-dashoffset: 0; stroke-linejoin: miter; stroke-miterlimit: 4; is-custom-font: none; font-file-url: none; fill: rgb(0,0,0); fill-rule: nonzero; opacity: 1;" transform=" translate(-212.7392, -24.2792)" d="m 193.20967 0 h 16.234901 v 32.5077802 h 22.824088 v 16.0506374 h -39.058989 z" stroke-linecap="round"/>
</g>
		<g transform="matrix(1 0 0 1 37.0082 66.2347)">
<path style="stroke: none; stroke-width: 1; stroke-dasharray: none; stroke-linecap: butt; stroke-dashoffset: 0; stroke-linejoin: miter; stroke-miterlimit: 4; is-custom-font: none; font-file-url: none; fill: rgb(255,255,255); fill-rule: nonzero; opacity: 1;" transform=" translate(-165.0082, -246.7348)" d="m 127.889582 220.572835 h 39.326945 l -3.707076 41.419956 l -35.619869 9.614066 v 33.22655 l 65.472704 -18.145759 l 0.480351 -5.395692 l 7.504879 -84.079824 l 0.779253 -8.576 h -74.237187 z" stroke-linecap="round"/>
</g>
		<g transform="matrix(1 0 0 1 39.891 -40.5366)">
<path style="stroke: none; stroke-width: 1; stroke-dasharray: none; stroke-linecap: butt; stroke-dashoffset: 0; stroke-linejoin: miter; stroke-miterlimit: 4; is-custom-font: none; font-file-url: none; fill: rgb(255,255,255); fill-rule: nonzero; opacity: 1;" transform=" translate(-167.891, -139.9634)" d="m 127.889582 155.854066 v 0.078066 h 77.143209 l 0.640704 -7.17855 l 1.45512 -16.190593 l 0.763781 -8.568264 h -80.002814 z" stroke-linecap="round"/>
</g>
</g>
</g>
</svg>